<?xml version="1.0" encoding="utf-8"?>
<!-- Generator: Adobe Illustrator 16.0.0, SVG Export Plug-In . SVG Version: 6.00 Build 0)  -->
<!DOCTYPE svg PUBLIC "-//W3C//DTD SVG 1.1//EN" "http://www.w3.org/Graphics/SVG/1.1/DTD/svg11.dtd">
<svg version="1.1" id="Layer_1" xmlns="http://www.w3.org/2000/svg" xmlns:xlink="http://www.w3.org/1999/xlink" x="0px" y="0px"
	 width="50px" height="50px" viewBox="0 0 50 50" enable-background="new 0 0 50 50" xml:space="preserve">
<g>
	<g>
		<g>
			<path d="M20.388,30.033v5.006h-7.081c-1.65,0-2.674-0.029-3.442-0.797C9.098,33.502,9.098,32.508,9.098,31V19.482
				c0-1.677-0.029-2.901,0.854-3.753c0.824-0.769,1.991-0.769,3.071-0.769h7.337v5.005h-1.792v-3.327h-5.005
				c-1.279,0-1.649,0-2.019,0.371c-0.426,0.369-0.426,0.995-0.426,2.133V30.66c0.028,1.363,0.028,1.961,0.37,2.303
				c0.341,0.371,0.881,0.371,2.047,0.398h5.034v-3.328H20.388z"/>
		</g>
		<g>
			<path d="M25.51,35.037v-1.676h1.847V16.639H25.51V14.96h5.827v1.678h-1.903v7.365h7.421v-7.365H34.95V14.96h5.858v1.678h-1.904
				v16.723h1.904v1.676H34.95v-1.676h1.904v-7.652h-7.421v7.652h1.903v1.676H25.51z"/>
		</g>
	</g>
	<path d="M24.954,2.465c12.444,0,22.532,10.089,22.532,22.535c0,12.444-10.088,22.534-22.532,22.534
		C12.508,47.533,2.419,37.443,2.419,25C2.419,12.554,12.508,2.465,24.954,2.465 M24.954,0.303C11.336,0.303,0.257,11.381,0.257,25
		c0,13.616,11.079,24.696,24.697,24.696c13.616,0,24.695-11.08,24.695-24.696C49.649,11.381,38.57,0.303,24.954,0.303L24.954,0.303z
		"/>
</g>
</svg>
