<?xml version="1.0" encoding="utf-8"?>
<!-- Generator: Adobe Illustrator 17.0.2, SVG Export Plug-In . SVG Version: 6.00 Build 0)  -->
<!DOCTYPE svg PUBLIC "-//W3C//DTD SVG 1.1//EN" "http://www.w3.org/Graphics/SVG/1.1/DTD/svg11.dtd">
<svg version="1.1" xmlns="http://www.w3.org/2000/svg" xmlns:xlink="http://www.w3.org/1999/xlink" x="0px" y="0px" width="367px"
	 height="199.5px" viewBox="0 0 367 199.5" style="enable-background:new 0 0 367 199.5;" xml:space="preserve">
<style type="text/css">
	.st3{fill:none;stroke:#e0e0e0;stroke-width:26.5893;stroke-miterlimit:10;}
</style>
<g id="bean-cloud-gate">
	<path class="st3" d="M183.4,135.7c23,0,45.4,10.7,64.8,30.9c11.5,12,27,18.6,43.6,18.6c15.6,0,30.5-6,41.7-16.8
		c11.6-11.1,18.2-26.1,18.6-42.3c0.3-16.1-5.6-31.4-16.8-43C293.2,39.2,239.2,15,183.4,15C127.5,15,73.6,39.2,31.5,83.1
		c-23,24-22.2,62.3,1.8,85.3c11.3,10.8,26.1,16.8,41.8,16.8c16.6,0,32.1-6.6,43.5-18.6C138,146.3,160.4,135.7,183.4,135.7z"/>
</g>
</svg>
