<?xml version="1.0" encoding="utf-8"?>
<!-- Generator: Adobe Illustrator 17.1.0, SVG Export Plug-In . SVG Version: 6.00 Build 0)  -->
<!DOCTYPE svg PUBLIC "-//W3C//DTD SVG 1.1//EN" "http://www.w3.org/Graphics/SVG/1.1/DTD/svg11.dtd">
<svg version="1.1" id="Layer_1" xmlns="http://www.w3.org/2000/svg" xmlns:xlink="http://www.w3.org/1999/xlink" x="0px" y="0px"
	 viewBox="0 0 270 500" enable-background="new 0 0 270 500" xml:space="preserve">
<style type="text/css">.colorFill{fill:#9d4799;}</style>
<image display="none" overflow="visible" width="270" height="500" xlink:href="../270.jpg"  transform="matrix(1 0 0 1 -1 0)">
</image>
<path class="colorFill" d="M20,263v3.3h14.2v-14.2H31V263H20"/>
<path class="colorFill" d="M117.8,215.5h-10.9v-10.9h-3.3v14.2h14.2V215.5"/>
<path class="colorFill" d="M15,111.1L3.9,122.3l2.6,2.6l8.6-8.6l8.6,8.6l2.6-2.6L15,111.1"/>
<path class="colorFill" d="M64.1,196.8l-4.9-4.9l-4.9,4.9l4.9,4.9L64.1,196.8"/>
<path class="colorFill" d="M98.7,420.8l-4.9-4.9l-4.9,4.9l4.9,4.9L98.7,420.8"/>
<path class="colorFill" d="M216.8,71.5l-4.9-4.9l-4.9,4.9l4.9,4.9L216.8,71.5"/>
<path class="colorFill" d="M190.8,26.5c-2.2-2.2-5.2-3.5-8.3-3.5c-3.9,0-7.6,1.9-9.8,5.2l2.6,1.7c1.6-2.4,4.3-3.8,7.2-3.8
	c2.3,0,4.5,0.9,6.1,2.5c0.4,0.4,0.7,0.8,1,1.2l2.6-1.8C191.8,27.5,191.3,27,190.8,26.5"/>
<path class="colorFill" d="M130.2,136.7c-2.2-2.2-5.2-3.5-8.3-3.5c-3.9,0-7.6,1.9-9.8,5.2l2.6,1.7c1.6-2.4,4.3-3.8,7.2-3.8
	c2.3,0,4.5,0.9,6.1,2.5c0.4,0.4,0.7,0.8,1,1.2l2.6-1.8C131.2,137.7,130.8,137.2,130.2,136.7"/>
<path class="colorFill" d="M115.7,318.1c2.2-2.2,3.5-5.2,3.5-8.3c0-3.9-1.9-7.6-5.2-9.8l-1.7,2.6c2.4,1.6,3.8,4.3,3.8,7.2
	c0,2.3-0.9,4.5-2.5,6.1c-0.4,0.4-0.8,0.7-1.2,1l1.8,2.6C114.6,319.1,115.2,318.6,115.7,318.1"/>
<path class="colorFill" d="M218.1,399.2c0,3.1,1.2,6.1,3.5,8.3c2.8,2.8,6.7,4,10.6,3.2l-0.6-3c-2.8,0.5-5.8-0.3-7.8-2.4
	c-1.6-1.6-2.5-3.9-2.5-6.1c0-0.5,0-1.1,0.1-1.6l-3-0.6C218.2,397.8,218.1,398.5,218.1,399.2"/>
<path class="colorFill" d="M172.3,477.7h-19.1v4.1h19.1V477.7"/>
<path class="colorFill" d="M130,376l-13.5-13.5l-2.9,2.9l13.5,13.5L130,376"/>
<path class="colorFill" d="M249.3,20.1L235.8,6.6l-2.9,2.9L246.4,23L249.3,20.1"/>
<path class="colorFill" d="M175.2,227.8l5.2-5.2c0.4-0.4,0.9-0.6,1.4-0.6c0.5,0,1,0.2,1.4,0.6l2.4,2.4c1,1,2.4,1.6,3.8,1.6
	c1.4,0,2.8-0.5,3.8-1.6l2.6-2.6c0.4-0.4,0.9-0.6,1.4-0.6c0.5,0,1,0.2,1.4,0.6l2.4,2.4c1,1,2.4,1.6,3.8,1.6c1.4,0,2.8-0.5,3.8-1.6
	l5.2-5.2l-2.4-2.4l-5.2,5.2c-0.4,0.4-0.9,0.6-1.4,0.6c-0.5,0-1-0.2-1.4-0.6l-2.4-2.4c-1-1-2.4-1.6-3.8-1.6s-2.8,0.5-3.8,1.6
	l-2.6,2.6c-0.4,0.4-0.9,0.6-1.4,0.6c-0.5,0-1-0.2-1.4-0.6l-2.4-2.4c-1-1-2.4-1.6-3.8-1.6c-1.4,0-2.8,0.6-3.8,1.6l-5.2,5.2
	L175.2,227.8"/>
<path class="colorFill" d="M256.3,339.4l2.4-2.4l-5.2-5.2c-1-1-2.4-1.6-3.8-1.6c-1.4,0-2.8,0.6-3.8,1.6l-2.4,2.4
	c-0.4,0.4-0.9,0.6-1.4,0.6c-0.5,0-1-0.2-1.4-0.6l-2.6-2.6c-1-1-2.4-1.6-3.8-1.6s-2.8,0.5-3.8,1.6l-2.4,2.4c-0.4,0.4-0.9,0.6-1.4,0.6
	c-0.5,0-1-0.2-1.4-0.6l-5.2-5.2l-2.4,2.4l5.2,5.2c1,1,2.4,1.6,3.8,1.6c1.4,0,2.8-0.5,3.8-1.6l2.4-2.4c0.4-0.4,0.9-0.6,1.4-0.6
	c0.5,0,1,0.2,1.4,0.6l2.6,2.6c1,1,2.4,1.6,3.8,1.6c1.4,0,2.8-0.5,3.8-1.6l2.4-2.4c0.4-0.4,0.9-0.6,1.4-0.6c0.5,0,1,0.2,1.4,0.6
	L256.3,339.4"/>
<path class="colorFill" d="M211.3,450.1l2.4-2.4l-5.2-5.2c-1-1-2.4-1.6-3.8-1.6c-1.4,0-2.8,0.6-3.8,1.6l-2.4,2.4
	c-0.4,0.4-0.9,0.6-1.4,0.6c-0.5,0-1-0.2-1.4-0.6l-2.6-2.6c-1-1-2.4-1.6-3.8-1.6s-2.8,0.5-3.8,1.6l-2.4,2.4c-0.4,0.4-0.9,0.6-1.4,0.6
	c-0.5,0-1-0.2-1.4-0.6l-5.2-5.2l-2.4,2.4l5.2,5.2c1,1,2.4,1.6,3.8,1.6c1.4,0,2.8-0.5,3.8-1.6l2.4-2.4c0.4-0.4,0.9-0.6,1.4-0.6
	c0.5,0,1,0.2,1.4,0.6l2.6,2.6c1,1,2.4,1.6,3.8,1.6c1.4,0,2.8-0.5,3.8-1.6l2.4-2.4c0.4-0.4,0.9-0.6,1.4-0.6c0.5,0,1,0.2,1.4,0.6
	L211.3,450.1"/>
<path class="colorFill" d="M66.5,54.6l5.2-5.2c0.4-0.4,0.9-0.6,1.4-0.6c0.5,0,1,0.2,1.4,0.6l2.4,2.4c1,1,2.4,1.6,3.8,1.6
	c1.4,0,2.8-0.5,3.8-1.6l2.6-2.6c0.4-0.4,0.9-0.6,1.4-0.6c0.5,0,1,0.2,1.4,0.6l2.4,2.4c1,1,2.4,1.6,3.8,1.6c1.4,0,2.8-0.5,3.8-1.6
	l5.2-5.2l-2.4-2.4l-5.2,5.2c-0.4,0.4-0.9,0.6-1.4,0.6c-0.5,0-1-0.2-1.4-0.6l-2.4-2.4c-1-1-2.4-1.6-3.8-1.6c-1.4,0-2.8,0.5-3.8,1.6
	l-2.6,2.6c-0.4,0.4-0.9,0.6-1.4,0.6c-0.5,0-1-0.2-1.4-0.6L76.9,47c-1-1-2.4-1.6-3.8-1.6c-1.4,0-2.8,0.6-3.8,1.6l-5.2,5.2L66.5,54.6"
	/>
<path class="colorFill" d="M19.1,388.5l-2.4,2.4l5.2,5.2c1,1,2.4,1.6,3.8,1.6c1.4,0,2.8-0.6,3.8-1.6l2.4-2.4c0.4-0.4,0.9-0.6,1.4-0.6
	c0.5,0,1,0.2,1.4,0.6l2.6,2.6c1,1,2.4,1.6,3.8,1.6s2.8-0.5,3.8-1.6l2.4-2.4c0.4-0.4,0.9-0.6,1.4-0.6c0.5,0,1,0.2,1.4,0.6l5.2,5.2
	l2.4-2.4l-5.2-5.2c-1-1-2.4-1.6-3.8-1.6c-1.4,0-2.8,0.5-3.8,1.6l-2.4,2.4c-0.4,0.4-0.9,0.6-1.4,0.6c-0.5,0-1-0.2-1.4-0.6l-2.6-2.6
	c-1-1-2.4-1.6-3.8-1.6c-1.4,0-2.8,0.5-3.8,1.6l-2.4,2.4c-0.4,0.4-0.9,0.6-1.4,0.6c-0.5,0-1-0.2-1.4-0.6L19.1,388.5"/>
<path class="colorFill" d="M228.8,162.4l-4.9,4.9c-0.3,0.3-0.8,0.5-1.3,0.5c-0.5,0-1-0.2-1.3-0.5L219,165c-1-1-2.3-1.5-3.6-1.5
	c-1.3,0-2.6,0.5-3.6,1.5l-4.9,4.9l2.3,2.3l4.9-4.9c0.4-0.4,0.8-0.5,1.3-0.5s0.9,0.2,1.3,0.5l2.3,2.3c1,1,2.2,1.5,3.6,1.5
	c1.4,0,2.6-0.5,3.6-1.5l4.9-4.9L228.8,162.4"/>
<path class="colorFill" d="M48.4,320.7c0-2.3-1.8-4.1-4.1-4.1c-2.3,0-4.1,1.8-4.1,4.1s1.8,4.1,4.1,4.1C46.5,324.9,48.4,323,48.4,320.7"
	/>
<path class="colorFill" d="M223.1,287c0-2.3-1.8-4.1-4.1-4.1c-2.3,0-4.1,1.8-4.1,4.1s1.8,4.1,4.1,4.1
	C221.3,291.1,223.1,289.2,223.1,287"/>
<path class="colorFill" d="M182.6,384.3c0-2.3-1.8-4.1-4.1-4.1c-2.3,0-4.1,1.8-4.1,4.1s1.8,4.1,4.1,4.1
	C180.7,388.5,182.6,386.6,182.6,384.3"/>
<path class="colorFill" d="M91.9,475.8c0-2.3-1.8-4.1-4.1-4.1c-2.3,0-4.1,1.8-4.1,4.1c0,2.3,1.8,4.1,4.1,4.1
	C90,479.9,91.9,478.1,91.9,475.8"/>
<path class="colorFill" d="M15,34l5.7-9.9H9.3L15,34"/>
<path class="colorFill" d="M88.7,88.7L78.8,83v11.4L88.7,88.7"/>
<path class="colorFill" d="M172.7,107l-5.7,9.9h11.4L172.7,107"/>
<path class="colorFill" d="M162.2,283l-9.9-5.7v11.4L162.2,283"/>
<path class="colorFill" d="M17.3,475.8l5.7-9.9H11.6L17.3,475.8"/>
</svg>
