<?xml version="1.0" encoding="utf-8"?>
<!-- Generator: Adobe Illustrator 17.0.2, SVG Export Plug-In . SVG Version: 6.00 Build 0)  -->
<!DOCTYPE svg PUBLIC "-//W3C//DTD SVG 1.1//EN" "http://www.w3.org/Graphics/SVG/1.1/DTD/svg11.dtd">
<svg version="1.1" xmlns="http://www.w3.org/2000/svg" xmlns:xlink="http://www.w3.org/1999/xlink" x="0px" y="0px" width="550px"
	 height="188.8px" viewBox="0 0 550 188.8" style="enable-background:new 0 0 550 188.8;" xml:space="preserve">
<style type="text/css">
	.st6{fill:#FFFFFF;}
</style>
<g id="hike">
	<g>
		<polygon class="st6" points="116,75.1 43,75.1 43,5.1 4,5.1 4,186.1 43,186.1 43,106.1 116,106.1 116,186.1 154,186.1 154,5.1 
			116,5.1 		"/>
		<rect x="176" y="65.1" class="st6" width="38" height="121"/>
		<polygon class="st6" points="360.7,54.1 318.5,54.1 271,102.3 271,5.1 236,5.1 236,186.1 271,186.1 271,140.8 286.1,127.8 
			323,186.1 366.3,186.1 311.7,102.9 		"/>
		<path class="st6" d="M478,75.7c-5.3-7.2-12-12.9-20.2-17.2c-8.2-4.3-17.8-6.4-28.9-6.4c-9.9,0-18.9,1.8-27,5.3
			c-8.1,3.5-15.1,8.3-21,14.5c-5.9,6.1-10.4,13.4-13.6,21.7c-3.2,8.4-4.8,17.4-4.8,27.1c0,10.1,1.5,19.3,4.6,27.6
			c3.1,8.4,7.5,15.6,13.2,21.6c5.7,6,12.7,10.7,20.9,13.9c8.2,3.3,17.4,4.9,27.6,4.9c14.7,0,27.3-3,37.7-9.7
			c10.4-6.7,18.1-19,23.1-33h-31.4c-1.2,4-4.4,7.4-9.5,11.1c-5.2,3.6-11.4,5.2-18.6,5.2c-10.1,0-17.8-3.3-23.1-8.5
			c-5.4-5.2-8.3-13.8-8.8-25.8h93.8c0.7-10-0.2-19.1-2.5-28.3C487.1,90.5,483.3,82.9,478,75.7z M398.2,106.1c0.2-2,0.7-5.1,1.6-8.3
			c0.9-3.2,2.5-6.1,4.8-8.9c2.3-2.8,5.3-5.2,9-7.1c3.8-1.9,8.5-2.9,14.2-2.9c8.7,0,15.2,2.1,19.5,6.8c4.3,4.7,7.2,11.4,8.9,20.4
			H398.2z"/>
		<path class="st6" d="M195.2,0c-11,0-20,8.9-20,20c0,11,8.9,19.9,20,19.9c11,0,20-8.9,20-19.9C215.1,8.9,206.2,0,195.2,0z"/>
		<path class="st6" d="M525.6,146.2c-11,0-20,8.9-20,19.9c0,11,8.9,20,20,20c11,0,19.9-8.9,19.9-20
			C545.6,155.2,536.6,146.2,525.6,146.2z"/>
	</g>
</g>
</svg>
