<?xml version="1.0" encoding="utf-8"?>
<!-- Generator: Adobe Illustrator 15.1.0, SVG Export Plug-In . SVG Version: 6.00 Build 0)  -->
<!DOCTYPE svg PUBLIC "-//W3C//DTD SVG 1.1//EN" "http://www.w3.org/Graphics/SVG/1.1/DTD/svg11.dtd">
<svg version="1.1" id="Layer_1" xmlns="http://www.w3.org/2000/svg" xmlns:xlink="http://www.w3.org/1999/xlink" x="0px" y="0px"
	 width="8px" height="14px" viewBox="0 0 15 25" enable-background="new 0 0 15 25" xml:space="preserve">
<path fill="#d5d5d5" d="M7.5,0.3c-4.2,0-7.6,3.4-7.6,7.6c0,0.1,0,0.2,0,0.3h0c0,4.8,7.6,16.5,7.6,16.5s5.4-8.6,7-14.1
	C14.9,9.8,15,9,15.1,8.1c0-0.1,0-0.2,0-0.2C15.1,3.7,11.7,0.3,7.5,0.3z M7.5,12.1c-2.3,0-4.2-1.9-4.2-4.2c0-2.3,1.9-4.2,4.2-4.2
	s4.2,1.9,4.2,4.2C11.7,10.2,9.8,12.1,7.5,12.1z"/>
</svg>
