<?xml version="1.0" encoding="utf-8"?>
<!-- Generator: Adobe Illustrator 17.0.2, SVG Export Plug-In . SVG Version: 6.00 Build 0)  -->
<!DOCTYPE svg PUBLIC "-//W3C//DTD SVG 1.1//EN" "http://www.w3.org/Graphics/SVG/1.1/DTD/svg11.dtd">
<svg version="1.1" xmlns="http://www.w3.org/2000/svg" xmlns:xlink="http://www.w3.org/1999/xlink" x="0px" y="0px" width="305.7px"
	 height="113px" viewBox="0 0 305.7 113" style="enable-background:new 0 0 305.7 113;" xml:space="preserve">
<style type="text/css">
	.st0{fill:none;stroke:#0192CE;stroke-width:12;stroke-miterlimit:10;}
	.st1{fill:none;stroke:#0192CE;stroke-width:12;stroke-linecap:square;stroke-miterlimit:10;}
</style>
<g id="squiggle-blue">
	<g>
		<path class="st0" d="M1,9.4c19,0,19,18.3,38.1,18.3c19,0,19-18.3,38.1-18.3c19,0,19,18.3,38.1,18.3c19,0,19-18.3,38.1-18.3
			c19,0,19,18.3,38.1,18.3c19,0,19-18.3,38.1-18.3c19,0,19,18.3,38.1,18.3c19,0,19-18.3,38.1-18.3"/>
	</g>
	<g>
		<path class="st0" d="M1,52.3c19,0,19,18.3,38.1,18.3c19,0,19-18.3,38.1-18.3c19,0,19,18.3,38.1,18.3c19,0,19-18.3,38.1-18.3
			c19,0,19,18.3,38.1,18.3c19,0,19-18.3,38.1-18.3c19,0,19,18.3,38.1,18.3c19,0,19-18.3,38.1-18.3"/>
	</g>
	<line class="st1" x1="299.2" y1="104.4" x2="197" y2="104.4"/>
</g>
</svg>
